<svg width="24" height="15" viewBox="0 0 24 15" fill="none" xmlns="http://www.w3.org/2000/svg">
<path d="M1.5 1.76471H22.5C22.9999 1.76471 24 0.487058 24 0C24 0 23.5943 8.40983e-06 23.0943 8.40983e-06H0.90566C0.405736 8.40983e-06 0 0 0 0C0 0.487058 1.00008 1.76471 1.5 1.76471Z" fill="#E51937"/>
<path d="M1.5 8.43751H22.5C22.9999 8.43751 24 7.15985 24 6.67279C24 6.67279 23.5943 6.6728 23.0943 6.6728H0.90566C0.405736 6.6728 0 6.67279 0 6.67279C0 7.15985 1.00008 8.43751 1.5 8.43751Z" fill="#E51937"/>
<path d="M1.5 15H22.5C22.9999 15 24 13.7223 24 13.2353C24 13.2353 23.5943 13.2353 23.0943 13.2353H0.90566C0.405736 13.2353 0 13.2353 0 13.2353C0 13.7223 1.00008 15 1.5 15Z" fill="#E51937"/>
</svg>
