<svg width="140" height="25" viewBox="0 0 140 25" fill="none" xmlns="http://www.w3.org/2000/svg">
<path d="M12.5 0L15.3064 8.63729H24.3882L17.0409 13.9754L19.8473 22.6127L12.5 17.2746L5.15268 22.6127L7.95911 13.9754L0.611794 8.63729H9.69357L12.5 0Z" fill="white"/>
<path d="M41.5 0L44.3064 8.63729H53.3882L46.0409 13.9754L48.8473 22.6127L41.5 17.2746L34.1527 22.6127L36.9591 13.9754L29.6118 8.63729H38.6936L41.5 0Z" fill="white"/>
<path d="M70.5 0L73.3064 8.63729H82.3882L75.0409 13.9754L77.8473 22.6127L70.5 17.2746L63.1527 22.6127L65.9591 13.9754L58.6118 8.63729H67.6936L70.5 0Z" fill="white"/>
<path d="M99.5 0L102.306 8.63729H111.388L104.041 13.9754L106.847 22.6127L99.5 17.2746L92.1527 22.6127L94.9591 13.9754L87.6118 8.63729H96.6936L99.5 0Z" fill="white"/>
<path d="M127.5 0L130.306 8.63729H139.388L132.041 13.9754L134.847 22.6127L127.5 17.2746L120.153 22.6127L122.959 13.9754L115.612 8.63729H124.694L127.5 0Z" fill="white"/>
</svg>
